<svg width="256" height="256" viewBox="0 0 256 256" fill="none" xmlns="http://www.w3.org/2000/svg">
<path d="M127.935 251.032L23.8127 174.413L232.589 175.142L127.935 251.032Z" fill="white"/>
<path d="M132.297 4.57705L235.327 80.82L28.1133 79.2364L132.297 4.57705Z" fill="white"/>
<rect x="35" y="67" width="192" height="109" fill="white"/>
<path d="M102.538 1.89069C90.2882 4.63633 81.0667 7.79382 71.4323 12.5987C38.1247 29.2098 14.8645 56.8036 3.71613 92.7715C0.412903 103.754 0 106.912 0 127.504C0 146.723 0.412903 151.803 3.02796 161.138C11.1484 190.242 30.6925 217.973 54.7785 234.584C64.2753 241.036 82.5806 249.273 94.8301 252.705C110.796 257.098 144.929 257.098 160.895 252.705C206.039 240.213 240.172 205.892 252.697 160.452C257.101 144.115 257.101 111.579 252.697 95.2426C239.346 46.9192 199.019 9.99034 150.022 1.34156C138.735 -0.717672 113.135 -0.305826 102.538 1.89069ZM167.363 44.0363C185.806 54.607 204.112 65.1778 208.241 67.5116C221.178 74.7875 220.766 73.0029 220.766 128.19C220.766 183.378 221.178 181.593 208.241 188.869C204.112 191.203 185.669 201.911 167.088 212.619C138.873 228.955 132.542 232.113 127.862 232.113C123.32 232.113 117.677 229.367 97.5828 217.836C83.957 209.873 65.514 199.302 56.4301 194.086C45.557 187.771 39.2258 183.24 37.5742 180.495C35.0968 176.514 34.9591 172.807 34.9591 128.19C34.9591 83.4363 35.0968 79.867 37.5742 75.8858C39.5011 72.7283 50.0989 65.8642 80.5161 48.4293C102.675 35.6621 122.082 24.8168 123.596 24.2677C129.101 22.6203 134.194 24.8168 167.363 44.0363Z" fill="black"/>
<path d="M129.652 44.3108C128.138 45.6837 127.863 53.7833 128 84.3972C128.276 105.401 128 123.797 127.45 125.033C126.624 127.092 121.256 124.346 92.0777 107.461C72.6713 96.3408 56.4304 87.8293 54.9164 87.9666C52.3014 88.3784 52.1638 89.614 51.7509 129.838L51.4756 171.16L55.1917 173.905C57.3939 175.278 71.7078 183.79 87.2605 192.713C102.813 201.636 117.402 210.01 119.88 211.383C123.734 213.854 124.284 213.854 126.349 211.932C128.276 210.01 128.551 204.519 128.413 168.963L128.276 128.19L163.785 107.598C191.037 91.8105 199.433 86.1819 199.433 84.2599C199.433 82.2007 192.138 77.2586 169.153 63.9422C128.413 40.3296 131.854 42.1143 129.652 44.3108Z" fill="black"/>
<path d="M179.2 122.562C163.51 128.19 148.92 150.018 148.645 168.414C148.37 189.967 166.262 194.223 183.467 176.788C201.497 158.53 205.764 128.739 191.312 122.699C185.531 120.228 185.669 120.228 179.2 122.562Z" fill="black"/>
</svg>
